<?xml version="1.0" encoding="utf-8"?>
<svg xmlns="http://www.w3.org/2000/svg" viewBox="4.636 -95.043 1142.118 699.358">
  <rect x="157.783" y="-448.01" width="258.935" height="438.664" class="box" rx="8.631" id="rect1" style="stroke-width: 0.862; fill: rgb(231, 236, 255); stroke: rgb(51, 51, 51);" transform="matrix(0, 1, -1, 0, 18.049131, -63.095768)"/>
  <text x="114.165" y="30.221" class="title" id="text1" style="white-space: pre; font-family: Arial, sans-serif; font-size: 20px; font-weight: 700; line-height: 32px; perspective-origin: 165.938px 22px; stroke-width: 1;">ESP32-HW-394</text>
  <text x="197.193" y="-412.06" class="pin" id="text2" transform="matrix(0, 1, -1, 0, 18.049131, -63.095768)" style="white-space: pre; font-family: Consolas, monospace; font-size: 13px; line-height: 20.8px; perspective-origin: 116.469px -204.516px; stroke-width: 1;">Row2:</text>
  <text x="197.193" y="-387.06" class="pin" id="text3" transform="matrix(0, 1, -1, 0, 18.049131, -63.095768)" style="white-space: pre; font-family: Consolas, monospace; font-size: 13px; line-height: 20.8px; perspective-origin: 109.312px -192.016px; stroke-width: 1;">3V3</text>
  <text x="197.193" y="-362.06" class="pin" id="text4" transform="matrix(0, 1, -1, 0, 18.049131, -63.095768)" style="white-space: pre; font-family: Consolas, monospace; font-size: 13px; line-height: 20.8px; perspective-origin: 109.312px -179.516px; stroke-width: 1;">GND</text>
  <text x="197.193" y="-337.06" class="pin" id="text5" transform="matrix(0, 1, -1, 0, 18.049131, -63.095768)" style="white-space: pre; font-family: Consolas, monospace; font-size: 13px; line-height: 20.8px; perspective-origin: 109.312px -167.016px; stroke-width: 1;">D15 (Buzzer)</text>
  <text x="197.193" y="-312.06" class="pin" id="text6" transform="matrix(0, 1, -1, 0, 18.049131, -63.095768)" style="white-space: pre; font-family: Consolas, monospace; font-size: 13px; line-height: 20.8px; perspective-origin: 105.734px -154.516px; stroke-width: 1;">D2</text>
  <text x="197.193" y="-287.06" class="pin" id="text7" transform="matrix(0, 1, -1, 0, 18.049131, -63.095768)" style="white-space: pre; font-family: Consolas, monospace; font-size: 13px; line-height: 20.8px; perspective-origin: 105.734px -142.016px; stroke-width: 1;">D4</text>
  <text x="197.193" y="-262.06" class="pin" id="text8" transform="matrix(0, 1, -1, 0, 18.049131, -63.095768)" style="white-space: pre; font-family: Consolas, monospace; font-size: 13px; line-height: 20.8px; perspective-origin: 109.312px -129.516px; stroke-width: 1;">D16</text>
  <text x="197.193" y="-237.06" class="pin" id="text9" transform="matrix(0, 1, -1, 0, 18.049131, -63.095768)" style="white-space: pre; font-family: Consolas, monospace; font-size: 13px; line-height: 20.8px; perspective-origin: 109.312px -117.016px; stroke-width: 1;">D17</text>
  <text x="197.193" y="-212.06" class="pin" id="text10" transform="matrix(0, 1, -1, 0, 18.049131, -63.095768)" style="white-space: pre; font-family: Consolas, monospace; font-size: 13px; line-height: 20.8px; perspective-origin: 105.734px -104.516px; stroke-width: 1;">D5</text>
  <text x="197.193" y="-187.06" class="pin" id="text11" transform="matrix(0, 1, -1, 0, 18.049131, -63.095768)" style="white-space: pre; font-family: Consolas, monospace; font-size: 13px; line-height: 20.8px; perspective-origin: 141.484px -92.0156px; stroke-width: 1;">D18 </text>
  <text x="197.193" y="-162.06" class="pin" id="text12" transform="matrix(0, 1, -1, 0, 18.049131, -63.095768)" style="white-space: pre; font-family: Consolas, monospace; font-size: 13px; line-height: 20.8px; perspective-origin: 145.047px -79.5156px; stroke-width: 1;">D19 (MAX INT)</text>
  <text x="197.193" y="-137.06" class="pin" id="text13" transform="matrix(0, 1, -1, 0, 18.049131, -63.095768)" style="white-space: pre; font-family: Consolas, monospace; font-size: 13px; line-height: 20.8px; perspective-origin: 145.047px -67.0156px; stroke-width: 1;">D21 (I²C SDA)</text>
  <text x="197.193" y="-112.06" class="pin" id="text14" transform="matrix(0, 1, -1, 0, 18.049131, -63.095768)" style="white-space: pre; font-family: Consolas, monospace; font-size: 13px; line-height: 20.8px; perspective-origin: 109.312px -54.5156px; stroke-width: 1;">RX0</text>
  <text x="197.193" y="-87.057" class="pin" id="text15" transform="matrix(0, 1, -1, 0, 18.049131, -63.095768)" style="white-space: pre; font-family: Consolas, monospace; font-size: 13px; line-height: 20.8px; perspective-origin: 109.312px -42.0156px; stroke-width: 1;">TX0</text>
  <text x="197.193" y="-62.057" class="pin" id="text16" transform="matrix(0, 1, -1, 0, 18.049131, -63.095768)" style="white-space: pre; font-family: Consolas, monospace; font-size: 13px; line-height: 20.8px; perspective-origin: 145.047px -29.5156px; stroke-width: 1;">D22 (I²C SCL)</text>
  <text x="197.193" y="-37.057" class="pin" id="text17" transform="matrix(0, 1, -1, 0, 18.049131, -63.095768)" style="white-space: pre; font-family: Consolas, monospace; font-size: 13px; line-height: 20.8px; perspective-origin: 109.312px -17.0156px; stroke-width: 1;">D23</text>
  <text x="337.193" y="-412.06" class="pin" id="text18" transform="matrix(0, 1, -1, 0, 18.049131, -63.095768)" style="white-space: pre; font-family: Consolas, monospace; font-size: 13px; line-height: 20.8px; perspective-origin: 186.469px -204.516px; stroke-width: 1;">Row1:</text>
  <text x="337.193" y="-387.06" class="pin" id="text19" transform="matrix(0, 1, -1, 0, 18.049131, -63.095768)" style="white-space: pre; font-family: Consolas, monospace; font-size: 13px; line-height: 20.8px; perspective-origin: 179.312px -192.016px; stroke-width: 1;">VIN</text>
  <text x="337.193" y="-362.06" class="pin" id="text20" transform="matrix(0, 1, -1, 0, 18.049131, -63.095768)" style="white-space: pre; font-family: Consolas, monospace; font-size: 13px; line-height: 20.8px; perspective-origin: 179.312px -179.516px; stroke-width: 1;">GND</text>
  <text x="337.193" y="-337.06" class="pin" id="text21" transform="matrix(0, 1, -1, 0, 18.049131, -63.095768)" style="white-space: pre; font-family: Consolas, monospace; font-size: 13px; line-height: 20.8px; perspective-origin: 179.312px -167.016px; stroke-width: 1;">D13</text>
  <text x="337.193" y="-312.06" class="pin" id="text22" transform="matrix(0, 1, -1, 0, 18.049131, -63.095768)" style="white-space: pre; font-family: Consolas, monospace; font-size: 13px; line-height: 20.8px; perspective-origin: 179.312px -154.516px; stroke-width: 1;">D12</text>
  <text x="337.193" y="-287.06" class="pin" id="text23" transform="matrix(0, 1, -1, 0, 18.049131, -63.095768)" style="white-space: pre; font-family: Consolas, monospace; font-size: 13px; line-height: 20.8px; perspective-origin: 179.312px -142.016px; stroke-width: 1;">D14</text>
  <text x="337.193" y="-262.06" class="pin" id="text24" transform="matrix(0, 1, -1, 0, 18.049131, -63.095768)" style="white-space: pre; font-family: Consolas, monospace; font-size: 13px; line-height: 20.8px; perspective-origin: 179.312px -129.516px; stroke-width: 1;">D27</text>
  <text x="337.193" y="-237.06" class="pin" id="text25" transform="matrix(0, 1, -1, 0, 18.049131, -63.095768)" style="white-space: pre; font-family: Consolas, monospace; font-size: 13px; line-height: 20.8px; perspective-origin: 179.312px -117.016px; stroke-width: 1;">D26</text>
  <text x="337.193" y="-212.06" class="pin" id="text26" transform="matrix(0, 1, -1, 0, 18.049131, -63.095768)" style="white-space: pre; font-family: Consolas, monospace; font-size: 13px; line-height: 20.8px; perspective-origin: 179.312px -104.516px; stroke-width: 1;">D25 (Btn)</text>
  <text x="337.193" y="-187.06" class="pin" id="text27" transform="matrix(0, 1, -1, 0, 18.049131, -63.095768)" style="white-space: pre; font-family: Consolas, monospace; font-size: 13px; line-height: 20.8px; perspective-origin: 179.312px -92.0156px; stroke-width: 1;">D33</text>
  <text x="337.193" y="-162.06" class="pin" id="text28" transform="matrix(0, 1, -1, 0, 18.049131, -63.095768)" style="white-space: pre; font-family: Consolas, monospace; font-size: 13px; line-height: 20.8px; perspective-origin: 179.312px -79.5156px; stroke-width: 1;">D32</text>
  <text x="337.193" y="-137.06" class="pin" id="text29" transform="matrix(0, 1, -1, 0, 18.049131, -63.095768)" style="white-space: pre; font-family: Consolas, monospace; font-size: 13px; line-height: 20.8px; perspective-origin: 179.312px -67.0156px; stroke-width: 1;">D35</text>
  <text x="337.193" y="-112.06" class="pin" id="text30" transform="matrix(0, 1, -1, 0, 18.049131, -63.095768)" style="white-space: pre; font-family: Consolas, monospace; font-size: 13px; line-height: 20.8px; perspective-origin: 179.312px -54.5156px; stroke-width: 1;">D34</text>
  <text x="337.193" y="-87.057" class="pin" id="text31" transform="matrix(0, 1, -1, 0, 18.049131, -63.095768)" style="white-space: pre; font-family: Consolas, monospace; font-size: 13px; line-height: 20.8px; perspective-origin: 175.734px -42.0156px; stroke-width: 1;">VN</text>
  <text x="337.193" y="-62.057" class="pin" id="text32" transform="matrix(0, 1, -1, 0, 18.049131, -63.095768)" style="white-space: pre; font-family: Consolas, monospace; font-size: 13px; line-height: 20.8px; perspective-origin: 175.734px -29.5156px; stroke-width: 1;">VP</text>
  <text x="337.193" y="-37.057" class="pin" id="text33" transform="matrix(0, 1, -1, 0, 18.049131, -63.095768)" style="white-space: pre; font-family: Consolas, monospace; font-size: 13px; line-height: 20.8px; perspective-origin: 175.734px -17.0156px; stroke-width: 1;">EN</text>
  <ellipse id="esp_3v3" cx="190.492" cy="-392.9" fill="#e53935" rx="4.841" ry="4" style="stroke-width: 1.1;" transform="matrix(0, 1, -1, 0, 18.049131, -63.095768)"/>
  <circle id="esp_gnd_l" cx="187.969" cy="-367.06" r="4" fill="#000000" transform="matrix(0, 1, -1, 0, 18.049131, -63.095768)" style="stroke-width: 1;"/>
  <circle id="esp_d19" cx="186.287" cy="-165.47" r="4" fill="#6a1b9a" transform="matrix(0, 1, -1, 0, 18.049131, -63.095768)" style="stroke-width: 1;"/>
  <circle id="esp_sda" cx="185.446" cy="-142.15" r="4" fill="#fb8c00" transform="matrix(0, 1, -1, 0, 18.049131, -63.095768)" style="stroke-width: 1;"/>
  <circle id="esp_scl" cx="185.446" cy="-65.466" r="4" fill="#2e7d32" transform="matrix(0, 1, -1, 0, 18.049131, -63.095768)" style="stroke-width: 1;"/>
  <circle id="esp_gnd_r" cx="397.193" cy="-367.06" r="4" fill="#000000" transform="matrix(0, 1, -1, 0, 18.049131, -63.095768)" style="stroke-width: 1;"/>
  <g id="g69" transform="matrix(1, 0, 0, 1, 23.09441, -75.708969)">
    <rect x="500.63391" y="58.137131" width="230" height="150" class="sensor" rx="6" id="rect33" style="fill: rgb(230, 247, 255); stroke: rgb(51, 51, 51);"/>
    <text x="569.3855" y="43.932732" class="title" id="text34" style="white-space: pre; font-family: Arial, sans-serif; font-size: 20px; font-weight: 700; line-height: 32px; perspective-origin: 334.719px 23.9531px;">MAX30102</text>
    <text x="520.63391" y="88.137131" class="pin" id="text35" style="white-space: pre; font-family: Consolas, monospace; font-size: 13px; line-height: 20.8px; perspective-origin: 271.031px 45.5625px;">VIN</text>
    <text x="520.63391" y="113.13713" class="pin" id="text36" style="white-space: pre; font-family: Consolas, monospace; font-size: 13px; line-height: 20.8px; perspective-origin: 271.031px 58.0625px;">GND</text>
    <text x="520.63391" y="138.13713" class="pin" id="text37" style="white-space: pre; font-family: Consolas, monospace; font-size: 13px; line-height: 20.8px; perspective-origin: 271.031px 70.5625px;">SCL</text>
    <text x="520.63391" y="163.13713" class="pin" id="text38" style="white-space: pre; font-family: Consolas, monospace; font-size: 13px; line-height: 20.8px; perspective-origin: 271.031px 83.0625px;">SDA</text>
    <text x="520.63391" y="188.13713" class="pin" id="text39" style="white-space: pre; font-family: Consolas, monospace; font-size: 13px; line-height: 20.8px; perspective-origin: 271.031px 95.5625px;">INT</text>
    <circle id="max_vin" cx="509.57312" cy="85.614494" r="4" fill="#e53935"/>
    <circle id="max_gnd" cx="511.25488" cy="109.77361" r="4" fill="#000000"/>
    <circle id="max_scl" cx="510.414" cy="134.77361" r="4" fill="#2e7d32"/>
    <circle id="max_sda" cx="508.73218" cy="161.45537" fill="#fb8c00" r="4"/>
    <circle id="max_int" cx="512.93665" cy="183.93274" r="4" fill="#6a1b9a"/>
  </g>
  <rect x="518.683" y="195.041" width="260" height="150" class="lcd" rx="6" id="rect39" style="fill: rgb(255, 244, 214); stroke: rgb(51, 51, 51); stroke-width: 1;"/>
  <text x="575.873" y="178.371" class="title" id="text40" style="white-space: pre; font-family: Arial, sans-serif; font-size: 20px; font-weight: 700; line-height: 32px; perspective-origin: 389.906px 122.281px; stroke-width: 1;">SSD1306 OLED</text>
  <text x="538.683" y="225.041" class="pin" id="text41" style="white-space: pre; font-family: Consolas, monospace; font-size: 13px; line-height: 20.8px; perspective-origin: 292.469px 145.562px; stroke-width: 1;">VSS (GND)</text>
  <text x="538.683" y="250.041" class="pin" id="text42" style="white-space: pre; font-family: Consolas, monospace; font-size: 13px; line-height: 20.8px; perspective-origin: 292.469px 158.062px; stroke-width: 1;">VDD (3V3)</text>
  <text x="538.683" y="275.041" class="pin" id="text43" style="white-space: pre; font-family: Consolas, monospace; font-size: 13px; line-height: 20.8px; perspective-origin: 271.031px 170.562px; stroke-width: 1;">SDA</text>
  <text x="538.683" y="300.041" class="pin" id="text44" style="white-space: pre; font-family: Consolas, monospace; font-size: 13px; line-height: 20.8px; perspective-origin: 285.328px 183.062px; stroke-width: 1;">SCK/SCL</text>
  <circle id="lcd_gnd" cx="528.191" cy="220.837" r="4" fill="#000000" style="stroke-width: 1;"/>
  <circle id="lcd_vdd" cx="528.191" cy="244.155" r="4" fill="#e53935" style="stroke-width: 1;"/>
  <circle id="lcd_sda" cx="527.351" cy="269.996" r="4" fill="#fb8c00" style="stroke-width: 1;"/>
  <circle id="lcd_scl" cx="525.669" cy="294.155" r="4" fill="#2e7d32" style="stroke-width: 1;"/>
  <rect x="400.188" y="442.426" width="200" height="100" class="btn" rx="6" id="rect44" style="fill: rgb(255, 227, 227); stroke: rgb(51, 51, 51); stroke-width: 1;"/>
  <text x="423.327" y="438.948" class="title" id="text45" style="white-space: pre; font-family: Arial, sans-serif; font-size: 20px; font-weight: 700; line-height: 32px; perspective-origin: 262.062px 253.016px; stroke-width: 1;">Push Button</text>
  <text x="409.757" y="474.744" class="pin" id="text46" style="white-space: pre; font-family: Consolas, monospace; font-size: 13px; line-height: 20.8px; perspective-origin: 245.891px 270.406px; stroke-width: 1;">One side → GND</text>
  <text x="409.757" y="499.744" class="pin" id="text47" style="white-space: pre; font-family: Consolas, monospace; font-size: 13px; line-height: 20.8px; perspective-origin: 288.766px 282.906px; stroke-width: 1;">Other → D18 (INPUT_PULLUP)</text>
  <circle id="btn_gnd" cx="566.212" cy="452.04" r="4" fill="#000000" style="stroke-width: 1;"/>
  <circle id="btn_sig" cx="425.785" cy="451.814" r="4" style="stroke-width: 1; fill: rgb(0, 62, 255);"/>
  <rect x="792.525" y="-53.73" width="320" height="214.115" fill="#f9f9f9" stroke="#cccccc" id="rect57" style="stroke-width: 1;"/>
  <text x="818.411" y="-37.979" class="label" id="text57" style="white-space: pre; font-family: Arial, sans-serif; font-size: 14px; line-height: 22.4px; stroke-width: 1;"><tspan class="title" style="font-size: 16px; font-family: Arial, sans-serif; font-weight: 700; word-spacing: 0px; stroke-width: 1;" id="tspan57">Legend</tspan></text>
  <text x="883.159" y="-12.184" class="label" id="text58" style="white-space: pre; font-family: Arial, sans-serif; font-size: 14px; line-height: 22.4px; perspective-origin: 496.359px 26.9531px; stroke-width: 1;"><tspan fill="#e53935" id="tspan58" style="font-size: 14px; word-spacing: 0px; stroke-width: 1;">— Red</tspan>: 3V3 (power)</text>
  <text x="883.159" y="12.816" class="label" id="text59" style="white-space: pre; font-family: Arial, sans-serif; font-size: 14px; line-height: 22.4px; perspective-origin: 478.062px 39.4531px; stroke-width: 1;"><tspan fill="#000000" id="tspan59" style="font-size: 14px; word-spacing: 0px; stroke-width: 1;">— Black</tspan>: GND</text>
  <text x="883.159" y="37.816" class="label" id="text60" style="white-space: pre; font-family: Arial, sans-serif; font-size: 14px; line-height: 22.4px; perspective-origin: 508.938px 51.9531px; stroke-width: 1;"><tspan fill="#2e7d32" id="tspan60" style="font-size: 14px; word-spacing: 0px; stroke-width: 1;">— Green</tspan>: I²C SCL (D22)</text>
  <text x="883.159" y="62.816" class="label" id="text61" style="white-space: pre; font-family: Arial, sans-serif; font-size: 14px; line-height: 22.4px; perspective-origin: 539.547px 64.4531px; stroke-width: 1;"><tspan fill="#fb8c00" id="tspan61" style="font-size: 14px; word-spacing: 0px; stroke-width: 1;">— Orange</tspan>: I²C SDA (D21)</text>
  <text x="883.159" y="87.816" class="label" id="text62" style="white-space: pre; font-family: Arial, sans-serif; font-size: 14px; line-height: 22.4px; perspective-origin: 532.797px 76.9531px; stroke-width: 1;"><tspan fill="#6a1b9a" id="tspan62" style="font-size: 14px; word-spacing: 0px; stroke-width: 1;">— Purple</tspan>: MAX30102 INT (D19)</text>
  <text x="691.62" y="454.556" class="label" id="text64" style="white-space: pre; font-family: Arial, sans-serif; font-size: 14px; line-height: 22.4px; perspective-origin: 534.172px 260.312px; stroke-width: 1;">• I²C bus shared by MAX30102 and LCD: SDA=D21, SCL=D22.</text>
  <text x="691.62" y="479.556" class="label" id="text65" style="white-space: pre; font-family: Arial, sans-serif; font-size: 14px; line-height: 22.4px; perspective-origin: 496.953px 272.812px; stroke-width: 1;">• Power both modules from 3V3 to keep I²C at 3.3V.</text>
  <path style="fill:#000000;fill-opacity:0;fill-rule:evenodd;stroke:#e70f0f;stroke-width:2;stroke-linecap:butt;stroke-linejoin:miter;stroke-dasharray:none;stroke-opacity:1" d="M 411.57 124.405 C 437.162 47.337 420.605 -14.808 531.827 10.061" id="path69"/>
  <path style="fill:none;fill-rule:evenodd;stroke:#070000;stroke-width:2;stroke-linecap:butt;stroke-linejoin:miter;stroke-dasharray:none;stroke-opacity:1" d="M 388.522 122.792 C 357.567 -34.585 529.724 67.965 537.713 31.924" id="path70"/>
  <path style="fill:none;fill-rule:evenodd;stroke:#d70909;stroke-width:2;stroke-linecap:butt;stroke-linejoin:miter;stroke-dasharray:none;stroke-opacity:1" d="M 411.492 128.778 C 523.762 97.202 775.635 348.508 525.009 246.579" id="path71"/>
  <path style="fill:none;fill-rule:evenodd;stroke:#000000;stroke-width:2;stroke-linecap:butt;stroke-linejoin:miter;stroke-dasharray:none;stroke-opacity:1" d="M 386.446 125.128 C 419.221 288.997 438.478 138.749 525.055 223.319" id="path72"/>
  <path style="fill: none; fill-rule: evenodd; stroke-width: 2; stroke-linecap: butt; stroke-linejoin: miter; stroke-dasharray: none; stroke-opacity: 1; stroke: rgb(52, 0, 233);" d="M 234.964 343.727 C 385.41 498.317 393.996 344.53 426.268 452.071" id="path73"/>
  <path style="fill:none;fill-rule:evenodd;stroke:#000000;stroke-width:2;stroke-linecap:butt;stroke-linejoin:miter;stroke-dasharray:none;stroke-opacity:1" d="M 388.458 336.28 C 381.311 364.911 599.354 429.705 562.86 449.857" id="path74"/>
  <path style="fill:none;fill-rule:evenodd;stroke:#efa048;stroke-width:2;stroke-linecap:butt;stroke-linejoin:miter;stroke-dasharray:none;stroke-opacity:1" d="M 164.178 121.967 C 118.191 29.992 531.474 85.875 531.827 86.581" id="path1"/>
  <path style="fill:none;fill-rule:evenodd;stroke:#f28f31;stroke-width:2;stroke-linecap:butt;stroke-linejoin:miter;stroke-dasharray:none;stroke-opacity:1" d="M 163.908 123.843 C 26.383 370.658 447.74 149.398 523.639 268.504" id="path2"/>
  <path style="fill:none;fill-rule:evenodd;stroke:#20c314;stroke-width:2;stroke-linecap:butt;stroke-linejoin:miter;stroke-dasharray:none;stroke-opacity:1" d="M 87.475 121.786 C 48.375 1.692 534.621 56.245 535.19 57.991" id="path3"/>
  <path style="fill:none;fill-rule:evenodd;stroke:#0dbd1f;stroke-width:2;stroke-linecap:butt;stroke-linejoin:miter;stroke-dasharray:none;stroke-opacity:1" d="M 87.243 123.799 C 113.083 412.066 321.194 152.286 521.94 292.706" id="path4"/>
  <path style="fill:none;fill-rule:evenodd;stroke:#9923e6;stroke-width:2;stroke-linecap:butt;stroke-linejoin:miter;stroke-dasharray:none;stroke-opacity:1" d="M 187.511 123.024 C 180.435 42.844 522.402 91.26 535.19 108.444" id="path5"/>
  <rect x="132.668" y="452.419" width="92.268" height="100" class="btn" rx="6" id="rect-1" style="fill: rgb(255, 227, 227); stroke: rgb(51, 51, 51); stroke-width: 1;"/>
  <text x="147.219" y="437.78" class="title" id="text-1" style="white-space: pre; font-family: Arial, sans-serif; font-size: 20px; font-weight: 700; line-height: 32px; perspective-origin: 262.062px 253.016px; stroke-width: 1;">Buzzer</text>
  <circle id="circle-1" cx="147.38" cy="472.344" r="4" style="stroke-width: 1; fill: rgb(255, 0, 193);"/>
  <circle id="circle-2" cx="192.269" cy="473.241" r="4" fill="#000000" style="stroke-width: 1;"/>
  <path style="fill: none; fill-rule: evenodd; stroke: rgb(0, 0, 0); stroke-width: 2; stroke-linecap: butt; stroke-linejoin: miter; stroke-dasharray: none; stroke-opacity: 1; transform-box: fill-box; transform-origin: 50% 50%;" d="M 191.126 475.266 C 183.515 439.619 415.7 358.948 376.839 333.858" id="path-1" transform="matrix(-1, 0, 0, -1, 0.000005, -0.000014)"/>
  <circle id="circle-3" cx="187.128" cy="-190.47" r="0.898" transform="matrix(0, 1, -1, 0, 37.460117, 529.944699)" style="stroke-width: 1; fill: rgb(0, 14, 255); transform-box: fill-box; transform-origin: 449.895% 0.01315%;"/>
  <circle id="circle-4" cx="187.128" cy="-190.47" r="4" transform="matrix(0, 1, -1, 0, 168.7827, -63.116642)" style="stroke-width: 1; fill: rgb(255, 0, 221);"/>
  <text class="label" id="text-2" style="font-family: Arial, sans-serif; font-size: 14px; white-space: pre;"><tspan x="883.958" y="111.892" style="fill: rgb(30, 27, 154);">— Blue</tspan><tspan>: Push Button  (D25)</tspan></text>
  <path style="fill: none; fill-rule: evenodd; stroke-width: 2; stroke-linecap: butt; stroke-linejoin: miter; stroke-dasharray: none; stroke-opacity: 1; stroke: rgb(242, 18, 198);" d="M 147.292 472.283 C 148.871 438.018 82.727 250.358 359.79 125.867" id="path-2"/>
  <text class="label" id="text-3" style="font-family: Arial, sans-serif; font-size: 14px; white-space: pre;"><tspan x="884.364" y="131.642" style="fill: rgb(242, 18, 198);">— Pink:</tspan><tspan> Buzzer  (D15)</tspan></text>
  <circle id="circle-5" cx="234.463" cy="343.964" r="4" style="stroke-width: 1; fill: rgb(0, 62, 255);"/>
</svg>